<mxfile host="app.diagrams.net" modified="2023-05-16T19:12:33.116Z" agent="Mozilla/5.0 (X11; Ubuntu; Linux x86_64; rv:109.0) Gecko/20100101 Firefox/112.0" version="21.3.2" etag="QmohqMJf9wBSqpqK5npT" type="github">
  <diagram name="Seite-1" id="ZNGUfkY3MXgLGNmw0yQi">
    <mxGraphModel>
      <root>
        <mxCell id="0" />
        <mxCell id="1" parent="0" />
      </root>
    </mxGraphModel>
  </diagram>
</mxfile>
